<svg width="90" height="130" viewBox="0 0 90 130" fill="none" xmlns="http://www.w3.org/2000/svg">
<path d="M87.5 85C87.5 108.472 68.4721 127.5 45 127.5C21.5279 127.5 2.5 108.472 2.5 85C2.5 79.1917 4.27396 71.0766 7.2934 62.0251C10.2954 53.0258 14.4618 43.2964 19.096 34.3278C23.737 25.3462 28.8025 17.2143 33.577 11.3676C35.9676 8.44019 38.2255 6.15984 40.2605 4.63244C42.3433 3.06911 43.9197 2.5 45 2.5C46.0803 2.5 47.6567 3.06911 49.7395 4.63244C51.7745 6.15984 54.0324 8.44019 56.423 11.3676C61.1975 17.2143 66.263 25.3462 70.904 34.3278C75.5382 43.2964 79.7046 53.0258 82.7066 62.0251C85.726 71.0766 87.5 79.1917 87.5 85ZM26.75 85C26.75 95.0792 34.9208 103.25 45 103.25C55.0792 103.25 63.25 95.0792 63.25 85C63.25 74.9208 55.0792 66.75 45 66.75C34.9208 66.75 26.75 74.9208 26.75 85Z" fill="#D9D9D9" stroke="black" stroke-width="5"/>
</svg>
